<svg width="23" height="22" viewBox="0 0 23 22" fill="none" xmlns="http://www.w3.org/2000/svg">
<path d="M11.5192 2.66751C8.34708 2.66751 5.76916 5.13334 5.76916 8.16751V10.8167C5.76916 11.3758 5.51999 12.2283 5.22291 12.705L4.12083 14.4558C3.44041 15.5375 3.90999 16.7383 5.15583 17.1417C9.28624 18.4617 13.7425 18.4617 17.8729 17.1417C19.0325 16.775 19.5404 15.4642 18.9079 14.4558L17.8058 12.705C17.5183 12.2283 17.2692 11.3758 17.2692 10.8167V8.16751C17.2692 5.14251 14.6817 2.66751 11.5192 2.66751Z" stroke="#292D32" stroke-width="1.5" stroke-miterlimit="10" stroke-linecap="round"/>
<path d="M13.2921 2.93332C12.995 2.85082 12.6883 2.78665 12.3721 2.74999C11.4521 2.63999 10.5704 2.70415 9.74625 2.93332C10.0242 2.25499 10.7142 1.77832 11.5192 1.77832C12.3242 1.77832 13.0142 2.25499 13.2921 2.93332Z" stroke="#292D32" stroke-width="1.5" stroke-miterlimit="10" stroke-linecap="round" stroke-linejoin="round"/>
<path d="M14.3942 17.4717C14.3942 18.9842 13.1004 20.2217 11.5192 20.2217C10.7333 20.2217 10.005 19.91 9.4875 19.415C8.97 18.92 8.64417 18.2233 8.64417 17.4717" stroke="#292D32" stroke-width="1.5" stroke-miterlimit="10"/>
</svg>
